<?xml version="1.0" encoding="UTF-8" standalone="no"?><svg xmlns="http://www.w3.org/2000/svg" xmlns:xlink="http://www.w3.org/1999/xlink" contentScriptType="text/ecmascript" fill="#000000" width="429.5" zoomAndPan="magnify" contentStyleType="text/css" viewBox="34.1 8.6 429.5 492.8" height="492.8" data-name="Layer 1" preserveAspectRatio="xMidYMid meet" version="1"><g id="change1_1"><path fill="#646464" d="M248.265,121.052c2.38,30.456,2.54,62.852,18.947,88.622,15.76,24.755,43.776,38.752,71.405,48.643s56.745,17.116,81.183,33.364,43.764,44.575,39.03,73.537c-3.041,18.6-15.327,34.334-28.733,47.578-69.059,68.226-181.062,88.527-269.674,48.881-26.161-11.705-50.543-28.393-68.146-51.011-17.786-22.853-27.93-50.693-35.631-78.61C40.609,273.917,34.1,211.891,48.234,153.26,59.348,107.161,94.949,28.842,148.576,19.5,211.314,8.567,244.181,68.775,248.265,121.052Z"/></g></svg>